<svg xmlns="http://www.w3.org/2000/svg" width="10" height="11" fill="none"><path fill="#000" d="M9.758 5.5v2.916a1.62 1.62 0 0 1-1.62 1.62H2.306a1.62 1.62 0 0 1-1.62-1.62V2.584a1.62 1.62 0 0 1 1.62-1.62h2.916a.324.324 0 1 1 0 .648H2.306a.972.972 0 0 0-.972.972v5.832a.972.972 0 0 0 .972.972h5.832a.972.972 0 0 0 .972-.972V5.5a.324.324 0 1 1 .648 0ZM7.166 1.612h1.487L4.992 5.27a.324.324 0 0 0 0 .46.324.324 0 0 0 .46 0L9.11 2.072v1.484a.324.324 0 1 0 .648 0V1.288a.324.324 0 0 0-.094-.23.324.324 0 0 0-.23-.094H7.166a.324.324 0 1 0 0 .648Z"/></svg>