<svg xmlns="http://www.w3.org/2000/svg" width="118" height="36" fill="none"><path stroke="#F88E40" stroke-linecap="round" stroke-linejoin="round" stroke-width="2.028" d="M10.838 26.275h22.287l1.921-17.771m0 0H13.912l9.222 9.919 11.912-9.92ZM5.458 13.876h7.301M2 17.596h14.218m2.69 4.133H7.38"/><path fill="#000" d="M57.295 24.684h-3.164l-.12-12.848h-.047l-4.616 12.848h-3.164L45.898 7.84h2.784l-.095 13.252h.071l4.64-13.252h2.879l.095 13.252h.072L60.84 7.84h2.618l-6.163 16.845ZM73.85 11.931c0 .952-.135 1.792-.404 2.522-.254.73-.619 1.348-1.095 1.856a4.922 4.922 0 0 1-1.713 1.142c-.666.254-1.404.38-2.213.38h-2.046l-1.213 6.853H62.5L65.426 7.84h4.283c.555 0 1.079.079 1.57.237a3.65 3.65 0 0 1 1.333.738c.38.333.682.761.904 1.285.222.508.333 1.118.333 1.832Zm-2.617.38c0-.665-.167-1.189-.5-1.57-.317-.396-.809-.595-1.475-.595h-1.57l-.928 5.473h1.689c.857 0 1.53-.293 2.022-.88.508-.587.762-1.396.762-2.427Zm16.456-1.38c-.587-.729-1.348-1.094-2.284-1.094-.301 0-.61.064-.928.19a2.454 2.454 0 0 0-.833.524 2.657 2.657 0 0 0-.595.857c-.158.349-.237.753-.237 1.213 0 .603.166 1.095.5 1.475.332.365.776.714 1.332 1.047.349.222.698.468 1.046.738.365.27.69.587.976.951.285.35.515.754.69 1.214.174.444.262.96.262 1.546 0 .905-.151 1.698-.452 2.38a4.75 4.75 0 0 1-1.19 1.713 4.988 4.988 0 0 1-1.713 1.047c-.65.238-1.34.357-2.07.357a6.63 6.63 0 0 1-2.594-.5c-.777-.35-1.38-.793-1.808-1.332l1.69-2c.317.413.713.746 1.19 1 .475.254.983.38 1.522.38.761 0 1.388-.23 1.88-.69.507-.46.76-1.117.76-1.974 0-.603-.166-1.118-.499-1.546-.317-.429-.817-.85-1.499-1.261-.349-.207-.69-.437-1.023-.69a5.272 5.272 0 0 1-.88-.905 4.813 4.813 0 0 1-.619-1.165c-.142-.445-.214-.96-.214-1.547 0-.81.135-1.547.405-2.213a5.4 5.4 0 0 1 1.142-1.713 4.853 4.853 0 0 1 1.689-1.094 5.474 5.474 0 0 1 2.118-.405c.856 0 1.625.143 2.308.428.682.27 1.229.65 1.641 1.142l-1.713 1.928Zm15.782 13.753h-2.641l2.308-13.015h-.072l-5.662 13.015h-2.237L94.143 11.67h-.072l-2.26 13.015h-2.474L92.31 7.84h3.64l1.07 12.396h.096l5.354-12.396h3.973l-2.974 16.845Zm12.449-13.752c-.587-.73-1.348-1.095-2.284-1.095a2.49 2.49 0 0 0-.928.19 2.46 2.46 0 0 0-.833.524 2.644 2.644 0 0 0-.594.857c-.159.349-.238.753-.238 1.213 0 .603.166 1.095.499 1.475.333.365.778.714 1.333 1.047.349.222.698.468 1.047.738.364.27.69.587.975.951.286.35.516.754.69 1.214.175.444.262.96.262 1.546 0 .905-.151 1.698-.452 2.38a4.75 4.75 0 0 1-1.19 1.713 4.993 4.993 0 0 1-1.713 1.047c-.65.238-1.34.357-2.07.357-.936 0-1.8-.167-2.593-.5-.778-.35-1.38-.793-1.809-1.332l1.69-2c.317.413.713.746 1.189 1 .476.254.984.38 1.523.38.761 0 1.388-.23 1.88-.69.507-.46.761-1.117.761-1.974 0-.603-.167-1.118-.5-1.546-.317-.429-.817-.85-1.499-1.261-.349-.207-.69-.437-1.023-.69a5.282 5.282 0 0 1-.88-.905 4.818 4.818 0 0 1-.619-1.165c-.142-.445-.214-.96-.214-1.547 0-.81.135-1.547.405-2.213a5.39 5.39 0 0 1 1.142-1.713 4.858 4.858 0 0 1 1.689-1.094 5.473 5.473 0 0 1 2.118-.405c.856 0 1.626.143 2.308.428.682.27 1.229.65 1.641 1.142l-1.713 1.928Z"/></svg>